# xmcd
#
# Track frame offsets:
#	150
#	17715
#	29153
#	49515
#	64728
#	81523
#	96339
#	115680
#	132334
#	153266
#	168148
#	195366
#
# Disc length: 2806 seconds
#
# Revision: 0
# Processed by: cddbd v1.5.1PL0 Copyright (c) Steve Scherf et al.
# Submitted via: dBpowerAMP V4.0
#
DISCID=970af40c
DTITLE=Elisabeth Andreassen - A Couple of Days in Larsville
DYEAR=2004
DGENRE=Country
TTITLE0=Long Ride Home
TTITLE1=The Eastern Line
TTITLE2=Goodbye
TTITLE3=Window in the Sky
TTITLE4=Sin City
TTITLE5=I WIll Not Turn to Stone
TTITLE6=When I Fall
TTITLE7=Happiness
TTITLE8=Soon You`ll Fly
TTITLE9=A Fisherman`s Daughter
TTITLE10=I Don`t Wanna Talk About it
TTITLE11=Jolene
EXTD=
EXTT0=
EXTT1=
EXTT2=
EXTT3=
EXTT4=
EXTT5=
EXTT6=
EXTT7=
EXTT8=
EXTT9=
EXTT10=
EXTT11=
PLAYORDER=
